#!OML:ASF G:\JayActor3\Patient Classification 1\Patient 1\Session 5\male.ASF
:FULLY-SPECIFIED
:DEGREES
633
root 12.6588 15.5586 -5.44973 -131.687 92.2803 -149.146
lowerback 39.6198 -2.32467 -0.118726
upperback 10.258 -1.89534 -3.16446
thorax -7.92232 -0.267073 -2.6299
lowerneck -1.34611 0.121898 2.81961
upperneck -24.8101 1.44184 1.01438
head -7.3815 0.790837 -0.288567
rclavicle -2.54444e-014 -4.25399e-014
rhumerus -30.9707 -0.836199 -90.0848
rradius 50.2024
rwrist -4.56905
rhand -20.4997 -10.7929
rfingers 7.12502
rthumb 5.85737 -40.692
lclavicle -2.54444e-014 -4.25399e-014
lhumerus -22.554 6.82558 79.1047
lradius 35.7623
lwrist 21.078
lhand -25.7315 15.2372
lfingers 7.12502
lthumb 0.805102 45.2155
rfemur -68.4995 -1.24847 16.733
rtibia 93.9553
rfoot 3.80086 -5.60298
rtoes -9.73247
lfemur -58.2668 13.2435 -30.3114
ltibia 67.9481
lfoot -1.91146 -14.1595
ltoes -7.10158
634
root 12.5477 15.5653 -5.44184 -131.548 92.1868 -149.14
lowerback 39.5692 -2.30368 -0.118364
upperback 10.2374 -1.87214 -3.14716
thorax -7.92718 -0.258876 -2.62097
lowerneck -1.39658 0.104449 2.83822
upperneck -24.7877 1.42132 1.03439
head -7.36562 0.778737 -0.2836
rclavicle -8.74653e-015 -5.56597e-015
rhumerus -30.9463 -0.781887 -90.0201
rradius 50.0654
rwrist -4.62124
rhand -20.3627 -10.8195
rfingers 7.12502
rthumb 5.98966 -40.7149
lclavicle -8.74653e-015 -5.56597e-015
lhumerus -22.5837 6.81472 79.0999
lradius 35.7565
lwrist 21.1418
lhand -25.5774 15.4235
lfingers 7.12502
lthumb 0.953901 45.4011
rfemur -67.7704 -1.2376 16.7437
rtibia 94.947
rfoot 5.01956 -5.61116
rtoes -9.55921
lfemur -58.7285 13.0378 -30.327
ltibia 67.6593
lfoot -1.73045 -13.9968
ltoes -7.04102
635
root 12.4374 15.5737 -5.43382 -131.762 92.087 -149.472
lowerback 39.5254 -2.28327 -0.106858
upperback 10.2172 -1.84489 -3.12589
thorax -7.93392 -0.248799 -2.61518
lowerneck -1.41823 0.0885972 2.85363
upperneck -24.7731 1.40499 1.06114
head -7.35744 0.767823 -0.276321
rclavicle 2.14687e-014 3.18055e-014
rhumerus -30.929 -0.745791 -89.9479
rradius 49.9522
rwrist -4.67179
rhand -20.2175 -10.8753
rfingers 7.12502
rthumb 6.12984 -40.7666
lclavicle 2.14687e-014 3.18055e-014
lhumerus -22.6199 6.79676 79.1007
lradius 35.7479
lwrist 21.2041
lhand -25.4002 15.5915
lfingers 7.12502
lthumb 1.12506 45.5683
rfemur -66.9801 -1.21898 16.765
rtibia 95.7987
rfoot 6.27783 -5.60143
rtoes -9.3459
lfemur -59.1336 12.8029 -30.2971
ltibia 67.3293
lfoot -1.56566 -13.8342
ltoes -6.99864
636
root 12.3277 15.5832 -5.42569 -132.394 91.9865 -150.2
lowerback 39.4916 -2.26189 -0.0890086
upperback 10.2013 -1.81272 -3.10034
thorax -7.93887 -0.23617 -2.61005
lowerneck -1.41572 0.0745249 2.86173
upperneck -24.7678 1.3925 1.09249
head -7.35657 0.758599 -0.266689
rclavicle 1.90833e-014 1.74931e-014
rhumerus -30.9163 -0.724383 -89.8672
rradius 49.8653
rwrist -4.70879
rhand -20.079 -10.9541
rfingers 7.12502
rthumb 6.26353 -40.8415
lclavicle 1.90833e-014 1.74931e-014
lhumerus -22.6494 6.7864 79.1098
lradius 35.7246
lwrist 21.2589
lhand -25.249 15.6996
lfingers 7.12502
lthumb 1.27111 45.6756
rfemur -66.1318 -1.18597 16.7948
rtibia 96.5155
rfoot 7.56639 -5.61187
rtoes -8.95157
lfemur -59.4793 12.5554 -30.2352
ltibia 66.9628
lfoot -1.42763 -13.6584
ltoes -6.99398
637
root 12.2185 15.5935 -5.41743 -133.461 91.8899 -151.342
lowerback 39.4669 -2.23805 -0.0661942
upperback 10.1909 -1.77433 -3.07233
thorax -7.94026 -0.220269 -2.60731
lowerneck -1.39776 0.0635334 2.86809
upperneck -24.768 1.38379 1.11934
head -7.36012 0.751461 -0.258567
rclavicle 2.22639e-014 1.11319e-014
rhumerus -30.9056 -0.719462 -89.7795
rradius 49.798
rwrist -4.71848
rhand -20.0076 -11.0099
rfingers 7.12502
rthumb 6.33251 -40.8952
lclavicle 2.22639e-014 1.11319e-014
lhumerus -22.6683 6.77572 79.1283
lradius 35.6868
lwrist 21.2885
lhand -25.1351 15.7589
lfingers 7.12502
lthumb 1.3811 45.7342
rfemur -65.236 -1.13467 16.8339
rtibia 97.1014
rfoot 8.86274 -5.66201
rtoes -8.43218
lfemur -59.7703 12.3066 -30.1554
ltibia 66.5661
lfoot -1.32871 -13.4662
ltoes -7.06492
638
root 12.1096 15.6032 -5.40912 -135.273 91.7995 -153.208
lowerback 39.4489 -2.21069 -0.0331722
upperback 10.1872 -1.72662 -3.0431
thorax -7.93633 -0.199674 -2.61227
lowerneck -1.37364 0.0548037 2.87576
upperneck -24.7661 1.37673 1.13941
head -7.36394 0.745383 -0.25299
rclavicle 2.14687e-014 4.49253e-014
rhumerus -30.8912 -0.730318 -89.6879
rradius 49.7472
rwrist -4.70798
rhand -20.0011 -11.0363
rfingers 7.12502
rthumb 6.33871 -40.9215
lclavicle 2.14687e-014 4.49253e-014
lhumerus -22.6767 6.76728 79.1532
lradius 35.6396
lwrist 21.2932
lhand -25.0749 15.7632
lfingers 7.12502
lthumb 1.43927 45.7381
rfemur -64.3027 -1.06104 16.8939
rtibia 97.5673
rfoot 10.1183 -5.77587
rtoes -7.82597
lfemur -60.0247 12.0681 -30.0565
ltibia 66.1551
lfoot -1.24638 -13.2491
ltoes -7.13325
